<?xml version="1.0" encoding="UTF-8"?>
<svg id="Layer_1" xmlns="http://www.w3.org/2000/svg" version="1.1" viewBox="0 0 123.9 21.6">
  <!-- Generator: Adobe Illustrator 30.2.1, SVG Export Plug-In . SVG Version: 2.1.1 Build 1)  -->
  <defs>
    <style>
      .st0 {
        fill-rule: evenodd;
      }

      .st0, .st1 {
        fill: #fff;
      }

      .st2 {
        opacity: 1;
      }
    </style>
  </defs>
  <g class="st2">
    <path class="st0" d="M13.5,21.6c-5.5,0-10.1-4.1-10.8-9.6h2.1c.7,4.8,5.1,8.1,9.8,7.4,4.8-.7,8.1-5.1,7.4-9.8-.7-4.8-5.1-8.1-9.8-7.4-.8.1-1.5.3-2.2.6l-1.4-1.7c5.4-2.6,11.9-.4,14.5,5,2.6,5.4.4,11.9-5,14.5-1.5.7-3.1,1.1-4.8,1.1h0ZM14.7,16.6h-2.8l-4-5.6,4-5.4h6.8v11h-2.3v-3.2h-2.5l-1.7-2.3h4.1v-3.2h-3.3l-2.4,3.2s4,5.6,4,5.6ZM2.3,8.8V2.4h3.3l2.4,3.1-2.4,3.4h-3.3ZM6.8,11.1H0V0h6.8l4.2,5.3-4.2,5.6h0Z"/>
    <g>
      <path class="st1" d="M29.4,6.7h3.3c2.4,0,4.2,1.5,4.2,3.9s-1.8,3.9-4.2,3.9h-3.3v-7.8ZM32.7,12.7c1.1,0,2.1-.8,2.2-2,0,0,0-.1,0-.2,0-1.1-.7-2.1-1.8-2.1-.1,0-.2,0-.3,0h-1.3v4.3h1.3Z"/>
      <path class="st1" d="M37.9,6.7h2v7.8h-2v-7.8Z"/>
      <path class="st1" d="M45.1,6.6c1.4,0,2.6.6,3.3,1.8l-1.7.9c-.4-.6-1-.9-1.6-.9-1.2,0-2.2,1.1-2.1,2.4,0,1.2,1,2.1,2.1,2.1.5,0,1-.2,1.5-.5v-.7h-1.8v-1.7h3.8v3c-.9,1-2.1,1.5-3.4,1.5-2.2,0-4.1-1.6-4.2-3.8,0-2.2,1.6-4.1,3.8-4.2.1,0,.2,0,.4,0h0Z"/>
      <path class="st1" d="M49.8,6.7h2v7.8h-2v-7.8Z"/>
      <path class="st1" d="M54.9,8.4h-2.2v-1.8h6.4v1.8h-2.2v6h-2v-6Z"/>
      <path class="st1" d="M64.3,13.3h-3.2l-.4,1.2h-2.2l2.9-7.8h2.5l2.9,7.8h-2.2l-.4-1.2ZM61.6,11.6h2.2l-1.1-3.2-1.1,3.2Z"/>
      <path class="st1" d="M67.4,6.7h2v6h3.1v1.8h-5.1v-7.8Z"/>
      <path class="st1" d="M78.8,12.4h-4.3l-.9,2.1h-.4l3.2-7.8h.4l3.2,7.8h-.4l-.9-2.1ZM74.6,12h4.1l-2-4.9-2,4.9Z"/>
      <path class="st1" d="M81.4,6.7h.4v7.4h3.9v.4h-4.3v-7.8Z"/>
      <path class="st1" d="M86.4,10.6c0-2.1,1.5-3.9,3.7-4,0,0,.1,0,.2,0,1,0,2,.4,2.7,1.2l-.3.3c-.6-.7-1.5-1.1-2.4-1.1-2,.1-3.6,1.9-3.5,3.9.1,1.9,1.6,3.4,3.5,3.5.9,0,1.8-.4,2.4-1.1l.3.2c-.7.8-1.7,1.3-2.7,1.2-2.1,0-3.9-1.7-3.9-3.8,0,0,0-.1,0-.2Z"/>
      <path class="st1" d="M100.2,10.6h-5.3v3.8h-.4v-7.8h.4v3.6h5.3v-3.6h.4v7.8h-.4v-3.8Z"/>
      <path class="st1" d="M102.6,6.7h4.8v.4h-4.4v3.3h4.3v.4h-4.3v3.5h4.4v.4h-4.8v-7.8Z"/>
      <path class="st1" d="M115.7,7.1l-3,7.3h-.1l-3-7.3v7.3h-.4v-7.8h.6l2.9,7,2.9-7h.6v7.8h-.4v-7.3Z"/>
      <path class="st1" d="M120.4,11.1l-3.1-4.4h.5l2.8,4,2.8-4h.5l-3.1,4.4v3.4h-.4v-3.4Z"/>
    </g>
  </g>
</svg>